<?xml version="1.0" standalone="no"?>
<!DOCTYPE svg PUBLIC "-//W3C//DTD SVG 20010904//EN"
 "http://www.w3.org/TR/2001/REC-SVG-20010904/DTD/svg10.dtd">
<svg version="1.0" xmlns="http://www.w3.org/2000/svg"
 width="300.000000pt" height="283.000000pt" viewBox="0 0 300.000000 283.000000"
 preserveAspectRatio="xMidYMid meet">
<metadata>
Created by potrace 1.10, written by Peter Selinger 2001-2011
</metadata>
<g transform="translate(0.000000,283.000000) scale(0.100000,-0.100000)"
fill="#000000" stroke="none">
<path d="M1327 2618 l-32 -34 -35 17 c-47 22 -133 18 -186 -9 -87 -45 -134
-146 -112 -241 6 -28 15 -51 20 -51 4 0 8 -4 8 -10 0 -5 8 -19 18 -31 9 -11
27 -32 38 -46 l22 -25 -29 -59 c-16 -32 -29 -64 -29 -71 0 -8 -3 -9 -8 -3 -9
12 -81 59 -104 68 -21 7 -63 -27 -72 -59 -5 -15 2 -29 21 -48 23 -23 32 -26
65 -21 49 9 84 -12 90 -54 7 -48 -4 -58 -49 -42 -48 17 -57 25 -105 84 -21 27
-38 46 -38 43 0 -3 -12 5 -27 18 -16 14 -37 33 -49 43 -12 10 -24 28 -28 40
-6 19 -2 22 46 32 62 13 109 14 159 6 31 -6 39 -3 57 19 20 26 22 53 7 88 -4
10 -11 15 -16 12 -5 -3 -9 0 -9 5 0 19 -43 12 -66 -10 -13 -12 -40 -23 -60
-26 -20 -2 -44 -8 -53 -12 -9 -5 -24 -6 -34 -2 -16 6 -15 9 10 33 32 29 108
70 116 62 9 -9 46 15 63 41 14 22 14 26 -3 55 -31 53 -84 52 -110 -1 -7 -14
-34 -40 -60 -59 -58 -41 -123 -107 -123 -125 0 -16 -50 -65 -66 -65 -15 0 -88
-80 -108 -119 -10 -18 -20 -63 -23 -101 -4 -51 -9 -67 -19 -63 -16 6 -64 -40
-64 -62 0 -8 5 -24 12 -34 10 -16 6 -23 -24 -50 -48 -42 -68 -88 -68 -156 0
-58 28 -139 52 -148 7 -3 1 -6 -13 -6 -53 -2 -86 -53 -62 -96 6 -11 13 -55 17
-97 7 -82 22 -129 53 -165 10 -12 25 -30 34 -40 10 -13 15 -40 15 -89 -1 -63
3 -75 28 -109 32 -42 78 -65 131 -65 30 0 44 8 86 51 27 28 49 57 49 66 0 27
32 42 88 43 52 0 52 0 46 -27 -4 -16 -27 -55 -52 -88 -24 -33 -48 -71 -53 -84
-8 -19 -12 -21 -24 -11 -8 7 -15 9 -15 5 0 -3 -11 2 -25 13 -30 24 -58 19 -85
-16 -26 -32 -25 -48 4 -77 21 -21 30 -24 74 -18 50 6 51 5 65 -28 35 -84 113
-138 199 -139 40 0 52 -5 83 -36 59 -57 106 -74 213 -74 58 0 92 -4 92 -11 0
-17 27 -39 48 -39 33 0 46 25 32 60 -10 24 -10 33 1 49 90 122 83 105 90 241
l6 125 3 -160 c4 -210 1 -274 -16 -307 -19 -38 -18 -51 11 -82 30 -33 62 -33
98 -1 32 30 34 48 8 98 -15 29 -18 55 -17 120 4 138 5 138 27 82 10 -27 35
-68 54 -90 36 -41 44 -72 23 -93 -16 -16 7 -42 37 -42 23 0 55 28 55 49 0 7 7
10 19 6 10 -3 45 -6 77 -6 79 -1 164 31 197 74 22 28 31 33 75 34 28 1 66 9
85 16 43 19 103 80 119 123 12 33 13 33 70 33 49 -1 62 3 78 21 31 36 26 62
-18 92 -21 14 -72 14 -72 -2 0 -4 -11 -12 -25 -18 -23 -11 -26 -9 -44 26 -10
20 -29 48 -41 62 -35 39 -51 66 -56 95 l-5 26 62 -3 c59 -3 61 -4 75 -37 17
-42 85 -108 119 -117 63 -16 141 30 170 99 12 29 12 113 0 125 -3 4 3 12 53
70 34 41 62 126 62 190 0 34 6 66 14 78 13 18 13 25 -2 55 -14 28 -23 34 -49
34 -27 0 -30 2 -19 15 73 87 58 240 -30 307 -32 23 -33 27 -19 43 33 36 0 97
-48 88 -22 -4 -23 -3 -19 52 3 42 -1 69 -16 102 -24 56 -82 121 -131 149 -20
11 -43 34 -50 51 -18 40 -107 127 -143 140 -16 5 -28 16 -28 23 0 23 -41 65
-64 65 -28 0 -61 -27 -68 -58 -7 -27 32 -69 72 -79 36 -9 73 -29 110 -60 28
-23 30 -28 15 -33 -24 -8 -127 20 -141 39 -20 26 -72 22 -94 -6 -27 -34 -25
-59 5 -88 25 -26 69 -33 81 -14 11 18 184 -18 184 -38 0 -7 -16 -27 -36 -45
-74 -69 -144 -141 -144 -148 0 -7 -55 -37 -75 -40 -5 -1 -18 -6 -27 -11 -19
-10 -20 -8 -20 46 0 39 0 39 31 53 17 8 44 10 68 6 37 -6 42 -3 63 26 18 26
21 36 12 55 -14 31 -55 57 -76 49 -9 -3 -16 -10 -16 -15 0 -5 -6 -9 -14 -9 -7
0 -19 -6 -25 -14 -6 -8 -21 -16 -32 -19 -16 -4 -24 4 -44 50 -14 31 -25 61
-25 68 0 7 16 29 36 50 72 76 86 172 40 264 -55 107 -180 151 -284 98 -18 -8
-32 -12 -32 -9 0 4 -12 20 -26 35 -28 30 -52 30 -87 -1 -14 -12 -17 -25 -12
-49 4 -21 0 -43 -10 -63 -27 -51 -31 -161 -10 -231 16 -52 17 -64 5 -82 -34
-55 -58 -259 -28 -241 7 5 9 2 6 -8 -3 -8 5 -37 18 -64 13 -27 24 -56 24 -64
0 -8 -17 -48 -37 -88 l-37 -73 -38 73 c-42 83 -45 102 -21 149 25 49 41 117
38 158 -6 63 -18 115 -31 136 -18 25 -18 46 2 128 16 63 16 72 -1 150 -10 45
-18 96 -19 112 -1 37 -14 58 -44 74 -21 11 -27 9 -55 -21z m61 -10 c15 -15 16
-45 1 -50 -6 -2 1 -27 17 -62 23 -51 26 -68 22 -130 -3 -39 -12 -86 -22 -104
-16 -32 -16 -34 7 -85 49 -103 47 -213 -4 -290 -33 -50 -33 -48 21 -157 44
-88 52 -197 21 -284 -11 -32 -27 -66 -36 -76 -22 -24 -18 -48 16 -110 18 -30
40 -75 50 -100 12 -29 18 -37 19 -24 0 12 22 65 50 117 44 84 48 96 34 108
-37 30 -58 93 -62 184 -3 88 -3 92 37 173 23 46 41 94 41 106 0 13 -12 45 -27
72 -25 43 -28 59 -28 139 0 78 4 97 27 142 27 50 27 52 10 85 -10 19 -18 64
-20 110 -4 67 -1 82 23 129 16 32 22 55 16 57 -16 5 -13 38 4 52 36 30 69 -19
36 -54 -28 -30 -61 -117 -61 -161 0 -47 19 -133 32 -141 10 -6 88 63 88 78 0
5 -9 21 -20 36 -29 40 -35 100 -13 142 35 68 152 101 226 64 76 -38 107 -92
107 -183 0 -64 -31 -125 -88 -173 l-32 -27 24 -36 c14 -20 30 -61 36 -91 6
-29 13 -54 14 -54 10 0 104 56 122 72 12 10 28 16 37 12 24 -9 32 -44 13 -62
-13 -14 -19 -14 -42 -2 -23 13 -30 12 -72 -12 -44 -25 -47 -30 -53 -75 -4 -27
-9 -59 -13 -71 -9 -27 8 -29 85 -6 45 13 67 29 129 92 41 43 91 91 111 109 43
38 69 91 50 103 -7 4 -57 15 -112 24 -80 13 -103 14 -119 4 -37 -23 -77 24
-50 57 17 21 36 19 58 -5 14 -15 45 -25 109 -35 50 -8 98 -18 108 -21 15 -6
15 -3 -3 32 -11 21 -31 48 -44 60 -37 33 -119 85 -131 83 -26 -3 -37 2 -47 22
-14 26 3 49 36 49 22 0 28 -9 25 -37 -1 -6 25 -27 58 -47 69 -42 114 -90 132
-140 7 -20 18 -36 24 -36 31 0 106 -63 135 -112 27 -47 31 -60 28 -118 -6
-110 -52 -153 -179 -167 -57 -6 -62 -8 -75 -38 -7 -18 -16 -61 -20 -97 l-6
-65 59 7 c102 12 135 38 182 141 16 36 37 71 45 78 9 8 16 21 16 31 0 20 23
32 45 24 33 -13 9 -64 -30 -64 -15 0 -29 -19 -60 -83 -52 -106 -95 -139 -190
-145 -36 -2 -65 -8 -65 -12 0 -33 105 -110 149 -110 27 0 121 97 121 125 0 33
23 49 49 35 35 -18 21 -70 -18 -70 -9 0 -40 -25 -70 -55 l-53 -55 62 0 c101 0
158 39 181 123 16 59 -3 112 -58 165 -58 56 -52 73 9 22 84 -72 100 -170 41
-253 -46 -65 -83 -79 -184 -73 l-87 5 -53 -49 -54 -48 35 -14 c19 -8 65 -23
102 -33 62 -16 68 -16 83 -1 30 29 82 -17 55 -49 -15 -19 -39 -19 -59 -1 -9 7
-47 21 -86 31 -38 10 -85 26 -103 37 -19 10 -38 16 -43 12 -5 -3 -28 -30 -50
-61 l-41 -55 50 -44 c27 -24 67 -70 88 -103 38 -59 40 -61 74 -55 59 9 139 34
145 44 9 14 -96 71 -122 65 -34 -8 -53 4 -53 35 0 20 6 31 20 35 24 8 60 -11
60 -30 0 -8 13 -21 29 -29 16 -9 43 -28 61 -43 l33 -27 46 50 c26 28 52 69 59
91 15 51 16 158 0 182 -16 26 -3 51 26 51 31 0 41 -26 21 -56 -10 -15 -15 -47
-15 -91 0 -83 -29 -150 -88 -206 -38 -37 -39 -40 -26 -65 52 -101 -61 -223
-159 -170 -31 16 -60 56 -73 97 -10 34 -13 36 -65 43 -30 3 -76 6 -102 7 -44
1 -47 0 -37 -18 5 -11 10 -28 10 -39 0 -10 24 -51 54 -90 30 -39 57 -86 61
-103 7 -30 9 -31 43 -25 21 3 44 15 53 28 15 19 20 21 43 10 51 -23 21 -84
-31 -64 -17 7 -42 8 -63 4 -29 -6 -35 -13 -41 -41 -16 -78 -75 -124 -167 -129
-63 -4 -69 -7 -99 -42 -44 -51 -101 -72 -190 -71 -40 0 -82 5 -93 11 -22 12
-26 6 -32 -40 -2 -17 -10 -26 -25 -28 -13 -2 -23 1 -23 7 0 6 6 11 14 11 7 0
16 14 20 31 5 28 1 36 -32 65 -22 19 -46 51 -55 76 -17 48 -30 200 -31 384 -1
118 0 121 29 164 83 119 79 110 66 160 -16 59 -24 65 -55 45 -37 -24 -75 -93
-92 -165 -21 -90 -12 -774 11 -796 30 -30 12 -74 -30 -74 -12 0 -26 5 -33 12
-17 17 -15 55 4 66 15 8 16 48 16 384 -1 452 -6 481 -91 562 -34 33 -42 30
-60 -23 -17 -52 -14 -62 34 -126 55 -75 70 -136 61 -255 -4 -47 -10 -137 -15
-200 -8 -127 -21 -164 -78 -216 -28 -26 -33 -36 -27 -58 3 -14 12 -26 20 -26
8 0 14 -7 14 -15 0 -8 -6 -15 -13 -15 -22 0 -37 22 -37 53 0 26 -3 28 -22 22
-43 -15 -171 -17 -211 -4 -36 12 -97 68 -97 89 0 6 -27 10 -60 10 -33 0 -75 6
-93 14 -42 17 -83 66 -98 115 -10 33 -16 40 -46 44 -19 3 -45 1 -58 -5 -45
-20 -79 39 -36 62 26 13 24 14 55 -15 31 -29 86 -35 86 -10 0 25 30 76 70 123
34 38 69 126 56 139 -3 3 -46 2 -96 -2 -86 -7 -90 -8 -97 -33 -28 -113 -134
-158 -209 -89 -41 37 -55 97 -34 148 13 29 12 32 -27 70 -59 57 -77 100 -81
198 -3 56 -9 90 -19 99 -7 8 -12 19 -10 25 6 18 33 31 52 23 14 -5 16 -12 9
-34 -4 -15 -8 -65 -8 -112 0 -96 11 -124 69 -182 l37 -37 52 35 c28 18 56 34
62 34 7 0 15 11 18 24 7 27 30 39 56 31 24 -8 32 -32 19 -57 -8 -16 -17 -19
-42 -14 -24 4 -45 -1 -84 -24 -29 -17 -53 -34 -53 -39 0 -8 93 -37 150 -45 34
-6 36 -4 74 55 21 33 61 80 89 104 l50 43 -36 50 c-54 73 -57 75 -103 53 -21
-10 -68 -26 -104 -35 -36 -10 -73 -25 -82 -33 -20 -18 -47 -14 -62 9 -8 14 -6
22 11 40 21 21 23 21 42 4 19 -17 23 -17 96 3 43 12 89 27 102 35 l25 13 -52
46 -53 46 -86 -5 c-111 -7 -152 14 -193 95 -32 63 -35 101 -9 156 20 45 83
105 109 105 11 0 -2 -16 -35 -46 -58 -50 -79 -99 -68 -158 17 -87 83 -136 185
-136 l60 0 -54 55 c-29 30 -60 55 -68 55 -38 0 -51 52 -17 70 25 14 49 -2 49
-34 0 -29 93 -126 121 -126 44 0 149 81 149 114 0 3 -23 6 -52 6 -96 0 -176
59 -213 159 -22 57 -33 71 -56 71 -23 0 -50 27 -43 45 12 31 64 27 64 -5 0 -9
9 -25 19 -34 11 -10 22 -29 26 -44 21 -83 94 -155 170 -167 22 -3 50 -8 63
-11 19 -4 22 0 22 30 0 43 -19 137 -31 152 -5 6 -39 14 -75 17 -112 11 -164
57 -172 152 -3 38 1 70 12 99 19 49 100 132 138 141 16 4 29 18 37 41 18 49
57 92 126 136 33 22 60 46 60 55 0 36 58 43 71 8 9 -22 -25 -57 -47 -50 -35
11 -149 -77 -181 -138 l-19 -39 21 7 c12 4 60 12 106 19 63 10 90 18 105 34
23 26 42 28 59 7 27 -33 -13 -80 -49 -58 -15 10 -41 8 -125 -5 -58 -10 -108
-21 -112 -24 -16 -16 18 -61 126 -169 104 -104 123 -118 172 -133 74 -21 92
-21 83 2 -4 9 -9 41 -12 69 -5 50 -8 54 -50 79 -39 23 -48 24 -74 14 -49 -21
-79 19 -40 54 18 16 51 13 51 -5 0 -5 8 -13 18 -16 9 -4 34 -17 54 -30 46 -28
48 -28 48 -3 0 28 38 126 55 140 13 10 8 20 -32 64 -56 62 -73 100 -73 165 0
87 31 138 105 172 79 37 185 12 225 -53 28 -43 22 -106 -14 -156 l-26 -37 43
-37 c23 -20 45 -37 49 -38 26 -1 47 142 29 205 -10 36 -25 65 -63 117 -22 31
23 63 50 36z m-15 -240 c-6 -64 -12 -83 -20 -60 -3 6 -11 12 -20 12 -8 0 -13
6 -10 13 2 6 9 11 14 10 5 -1 10 3 11 10 12 92 34 105 25 15z m257 35 c0 -8 9
-27 20 -43 19 -27 19 -28 1 -44 -17 -16 -19 -15 -25 6 -13 41 -17 110 -6 103
6 -3 10 -13 10 -22z m-1074 -632 c16 -6 48 -12 72 -15 24 -3 47 -8 51 -11 9
-5 31 -84 31 -109 0 -30 -97 -9 -140 29 -24 22 -50 71 -50 97 0 21 -1 21 36 9z
m1908 -18 c-19 -76 -85 -133 -153 -133 -36 0 -39 15 -19 82 13 45 32 56 103
59 25 2 48 6 51 11 12 19 24 6 18 -19z m-1994 -80 c0 -36 116 -123 164 -123 8
0 17 -4 21 -10 3 -5 13 -7 23 -3 9 3 4 -6 -13 -20 -16 -14 -43 -29 -58 -32
-23 -6 -34 -1 -62 28 -19 19 -37 48 -41 64 -15 61 -68 83 -112 44 -22 -18 -31
-71 -12 -71 6 0 10 -6 10 -14 0 -7 15 -20 33 -27 17 -7 40 -21 50 -29 16 -16
16 -17 0 -18 -23 -1 -74 19 -91 35 -19 18 -39 84 -36 117 4 34 50 104 72 108
16 3 52 -31 52 -49z m2117 40 c-3 -2 9 -17 26 -34 29 -29 30 -33 24 -96 -4
-40 -13 -73 -23 -85 -19 -20 -90 -45 -100 -35 -8 7 24 41 40 43 6 0 17 2 25 2
8 1 12 5 9 8 -4 3 2 14 13 25 10 10 19 27 19 38 0 20 -46 71 -65 71 -24 0 -62
-39 -73 -77 -6 -21 -25 -52 -42 -68 -29 -28 -32 -28 -68 -16 -59 21 -81 45
-43 48 59 5 163 80 191 138 22 47 29 53 51 48 11 -3 18 -7 16 -10z m-1078
-280 c6 -16 19 -43 30 -61 21 -36 18 -49 -28 -130 l-13 -24 -28 39 c-38 53
-44 78 -26 105 9 12 16 30 16 40 0 10 5 18 10 18 6 0 10 9 10 20 0 29 16 25
29 -7z m-1109 -44 c0 -4 41 -7 91 -5 83 3 94 1 119 -20 15 -13 30 -21 34 -17
3 3 6 2 6 -3 0 -19 -115 -46 -163 -39 -41 6 -49 4 -71 -18 -14 -15 -26 -33
-26 -42 0 -24 48 -68 68 -61 96 32 220 77 233 85 18 10 45 -12 68 -56 10 -20
7 -27 -31 -65 -46 -47 -78 -85 -78 -94 0 -3 -6 -12 -14 -20 -18 -18 -62 -17
-101 1 l-30 13 30 2 c17 1 33 2 38 1 4 -1 25 8 47 19 34 17 40 25 40 52 0 38
-34 78 -65 78 -13 0 -37 -16 -57 -39 -19 -21 -54 -49 -77 -61 l-43 -21 -24 28
c-54 61 -77 168 -49 227 9 18 17 42 18 53 1 14 6 19 19 15 10 -2 18 -8 18 -13z
m2238 -16 c13 -154 1 -224 -44 -270 -16 -17 -49 -17 -66 0 -7 7 -25 18 -40 24
-16 7 -28 19 -28 27 0 15 -42 46 -63 46 -8 0 -26 -9 -41 -21 -43 -34 -32 -109
17 -109 11 0 15 -5 11 -11 -5 -8 -1 -8 13 0 15 7 29 7 51 -1 l30 -12 -25 -13
c-37 -19 -92 -17 -100 4 -9 24 -31 50 -85 105 -51 51 -52 63 -13 102 22 22 25
22 71 8 27 -8 58 -18 69 -22 11 -5 31 -12 45 -15 14 -4 39 -14 57 -23 41 -21
76 -6 91 38 10 28 9 34 -15 56 -24 22 -33 24 -75 19 -52 -7 -163 19 -153 36 4
5 11 7 16 4 5 -4 9 1 9 9 0 21 42 31 123 29 40 -1 81 4 100 12 43 19 42 20 45
-22z m-1241 -155 c38 -75 45 -99 49 -158 3 -61 3 -62 -6 -21 -5 24 -7 48 -4
52 3 5 -1 7 -8 4 -7 -3 -27 17 -47 46 -31 45 -33 52 -21 74 16 31 22 31 37 3z
m234 0 c2 -40 -2 -52 -29 -86 -15 -19 -35 -48 -44 -65 l-17 -32 0 30 c-1 51
16 104 44 140 30 40 45 44 46 13z"/>
<path d="M1100 2548 c-24 -13 -53 -35 -64 -50 -26 -36 -33 -123 -13 -168 15
-35 83 -120 95 -120 11 0 132 100 132 108 0 14 -64 47 -100 52 -27 4 -36 10
-38 28 -2 13 2 30 8 38 26 31 90 5 77 -31 -4 -9 6 -24 27 -40 18 -14 35 -25
38 -25 11 0 41 55 49 89 12 53 -11 97 -63 121 -56 26 -94 25 -148 -2z m141
-22 c30 -13 53 -69 42 -102 -13 -39 -53 -47 -53 -10 0 28 -45 66 -78 66 -11 0
-34 -12 -52 -26 -23 -20 -29 -32 -24 -48 9 -32 40 -59 71 -62 15 -2 29 -8 31
-14 2 -5 11 -10 19 -10 21 0 2 -23 -44 -51 -33 -21 -34 -21 -55 -3 -79 72 -73
223 11 258 35 15 98 16 132 2z"/>
<path d="M1743 2551 c-49 -23 -66 -49 -65 -103 1 -33 34 -108 48 -108 2 0 20
10 39 23 26 16 34 27 31 41 -7 26 11 46 39 46 31 0 49 -24 41 -55 -5 -20 -13
-25 -36 -25 -34 0 -102 -38 -97 -54 2 -6 32 -33 67 -61 l63 -49 39 44 c60 69
71 95 66 162 -5 70 -27 104 -88 136 -54 27 -92 28 -147 3z m121 -21 c71 -27
107 -122 74 -197 -7 -15 -25 -41 -40 -57 l-26 -30 -41 27 c-23 15 -41 31 -41
35 0 16 25 32 50 32 36 0 70 34 70 70 0 33 -40 70 -75 70 -28 0 -79 -46 -72
-65 3 -7 -1 -19 -10 -26 -13 -11 -17 -10 -29 6 -15 20 -19 72 -8 100 14 35 96
55 148 35z"/>
<path d="M1251 2291 c-6 -10 -33 -36 -61 -56 -48 -35 -50 -38 -35 -55 9 -10
35 -31 57 -47 l41 -28 53 60 54 60 -42 42 c-48 49 -53 51 -67 24z m52 -49 c13
-14 14 -21 5 -30 -7 -7 -9 -12 -4 -12 4 0 -6 -11 -22 -25 -31 -26 -50 -25 -83
4 -16 13 -15 17 24 48 48 38 58 40 80 15z"/>
<path d="M1672 2269 l-42 -40 51 -60 c29 -32 55 -59 59 -59 4 0 31 19 60 42
l52 43 -34 25 c-18 14 -47 39 -65 57 -17 18 -33 33 -35 33 -2 0 -22 -19 -46
-41z m94 -45 c19 -17 35 -31 36 -30 2 1 -4 -6 -12 -15 -28 -29 -52 -31 -77 -8
-12 13 -23 28 -23 35 0 7 -5 14 -12 16 -19 7 13 36 36 35 11 -1 34 -16 52 -33z"/>
<path d="M1322 2151 l-52 -59 32 -38 c37 -46 67 -110 68 -141 0 -34 19 -28 36
12 27 64 28 118 5 192 -31 102 -31 102 -89 34z m58 -33 c11 -27 23 -154 14
-146 -18 19 -74 111 -74 123 0 15 29 53 42 54 3 1 12 -14 18 -31z"/>
<path d="M1589 2165 c-31 -67 -33 -192 -5 -249 22 -43 23 -42 45 39 6 22 28
63 49 91 l39 51 -53 59 -52 59 -23 -50z m63 -32 c10 -9 18 -24 18 -33 0 -19
-60 -118 -72 -119 -14 -1 -9 98 6 134 17 40 22 42 48 18z"/>
<path d="M1106 2147 c-19 -28 -46 -104 -46 -128 0 -12 15 -25 44 -37 24 -11
63 -37 87 -58 30 -27 40 -33 35 -19 -17 44 -18 111 -3 147 l15 36 -54 41 c-30
23 -57 41 -59 41 -3 0 -11 -10 -19 -23z m65 -43 c25 -24 26 -28 16 -72 -5 -26
-11 -48 -12 -50 -2 -2 -21 6 -44 18 -39 19 -50 38 -33 54 7 8 9 14 11 47 0 11
6 17 11 14 6 -3 10 -1 10 4 0 17 12 13 41 -15z"/>
<path d="M1812 2136 c-24 -19 -48 -36 -53 -38 -7 -2 -4 -20 6 -46 17 -42 16
-100 -1 -147 -5 -14 5 -9 34 17 45 41 92 68 118 68 14 0 15 7 9 46 -8 53 -44
134 -59 134 -6 0 -30 -16 -54 -34z m69 -42 c25 -66 23 -71 -22 -93 -23 -12
-44 -19 -46 -18 -2 2 -7 25 -12 50 -8 45 -7 49 21 72 33 28 45 25 59 -11z"/>
<path d="M600 2143 c-80 -53 -120 -116 -120 -190 0 -92 49 -136 166 -149 64
-8 63 -11 11 63 -16 23 -40 44 -53 47 -24 6 -42 45 -29 65 9 16 51 13 65 -4 6
-8 10 -22 8 -32 -3 -10 10 -38 28 -63 17 -25 34 -55 38 -66 5 -15 18 -24 44
-29 20 -4 61 -15 90 -25 59 -21 59 -21 38 58 -17 62 -76 143 -144 199 -61 49
-79 71 -92 111 -13 37 -17 38 -50 15z m120 -145 c23 -21 45 -38 50 -38 5 0 12
-9 15 -20 3 -11 10 -20 14 -20 10 0 47 -69 55 -104 6 -25 5 -28 -11 -21 -10 4
-28 9 -40 11 -40 8 -73 23 -73 34 0 6 -11 28 -25 48 -14 20 -25 47 -25 60 0
29 -42 72 -71 72 -30 0 -69 -38 -69 -67 0 -27 57 -86 73 -76 6 3 7 1 3 -5 -3
-6 2 -15 11 -21 15 -9 13 -10 -14 -11 -18 0 -33 5 -33 10 0 6 -9 10 -20 10
-11 0 -26 12 -35 30 -36 69 -2 175 70 216 17 9 24 5 51 -30 17 -23 50 -58 74
-78z"/>
<path d="M2332 2110 c-16 -34 -40 -63 -80 -94 -95 -75 -160 -175 -162 -248 l0
-26 63 19 c34 10 74 21 89 24 16 3 29 14 34 28 3 12 21 42 38 67 18 25 31 53
28 63 -5 25 16 47 45 47 46 0 42 -52 -6 -76 -23 -12 -94 -104 -87 -112 9 -8
139 17 160 32 52 33 72 136 40 199 -26 52 -107 127 -136 127 -2 0 -13 -22 -26
-50z m58 2 c0 -4 10 -12 22 -17 51 -23 81 -148 50 -207 -19 -34 -112 -66 -112
-38 0 6 10 10 23 10 18 0 19 2 7 10 -13 9 -13 10 0 10 27 0 70 49 70 79 0 32
-34 61 -72 61 -30 0 -68 -38 -68 -68 0 -13 -13 -44 -30 -69 -16 -24 -30 -48
-30 -53 0 -5 -19 -14 -42 -20 -24 -6 -52 -14 -62 -17 -17 -5 -18 -1 -13 26 8
38 77 134 115 158 33 22 87 79 110 116 16 26 32 36 32 19z"/>
<path d="M1244 2048 c-17 -52 -5 -132 32 -225 35 -86 37 -95 25 -133 -7 -23
-35 -67 -66 -101 -70 -79 -73 -90 -38 -145 25 -38 51 -60 142 -119 8 -5 21
-16 29 -22 18 -18 33 -16 26 2 -4 8 -12 15 -20 15 -8 0 -14 10 -14 25 0 14 -7
42 -15 62 -8 19 -15 49 -15 65 0 16 -7 39 -15 52 -14 22 -14 25 1 40 9 10 26
16 38 14 26 -4 33 -40 11 -58 -20 -17 -18 -64 5 -120 l18 -45 28 60 c24 52 28
73 29 150 0 85 -3 94 -37 162 -24 45 -42 99 -49 143 -9 51 -23 90 -49 133 -42
69 -55 78 -66 45z m76 -141 c5 -26 10 -58 10 -71 0 -12 20 -64 45 -114 39 -79
45 -99 44 -149 -1 -32 -4 -47 -6 -33 -6 34 -42 70 -69 70 -13 0 -34 -10 -47
-22 -20 -20 -22 -28 -15 -53 15 -49 36 -150 32 -154 -1 -2 -10 4 -19 13 -9 9
-22 16 -28 16 -14 0 -57 63 -57 83 0 26 25 67 38 62 7 -3 11 -1 8 4 -3 4 4 17
16 27 63 56 73 156 28 262 -18 43 -30 88 -30 114 l0 43 20 -25 c10 -14 24 -47
30 -73z m86 -429 c-11 -54 -27 -55 -19 0 3 17 10 32 15 32 6 0 8 -13 4 -32z"/>
<path d="M1698 2038 c-41 -55 -55 -89 -69 -173 -8 -51 -27 -109 -51 -159 -32
-68 -38 -90 -38 -145 1 -69 15 -122 45 -168 l18 -27 18 45 c22 55 24 93 4 109
-34 28 -4 81 34 60 22 -11 29 -54 11 -65 -5 -3 -10 -18 -10 -33 0 -15 -9 -51
-21 -81 -11 -30 -18 -60 -15 -67 3 -8 -1 -14 -8 -14 -8 0 -17 -7 -20 -15 -5
-14 -1 -13 27 2 17 10 49 33 70 51 20 17 43 32 50 32 17 0 77 85 77 109 0 11
-26 48 -59 84 -92 101 -97 139 -39 263 31 66 41 152 24 202 -10 30 -19 28 -48
-10z m-10 -196 c-38 -77 -42 -136 -13 -192 21 -41 61 -91 71 -89 4 0 15 -16
25 -36 18 -36 18 -37 -4 -71 -12 -19 -36 -39 -54 -46 -17 -6 -31 -16 -30 -21
1 -5 -4 -12 -10 -14 -9 -3 -9 6 2 37 8 24 15 55 15 71 0 15 5 31 10 34 18 11
11 54 -12 75 -30 27 -64 25 -93 -6 l-25 -27 0 25 c0 33 24 101 56 161 15 29
28 72 31 105 3 31 17 82 32 112 l26 55 3 -53 c3 -44 -3 -65 -30 -120z m-85
-343 c6 -4 6 -19 2 -35 l-8 -29 -7 25 c-9 29 -11 83 -3 60 3 -8 10 -18 16 -21z"/>
<path d="M1050 1958 c1 -72 60 -204 87 -194 6 3 19 -4 28 -14 24 -27 4 -62
-33 -58 -23 2 -27 8 -27 33 0 42 -34 95 -65 101 -26 5 -116 32 -137 40 -8 4
-7 -8 3 -42 8 -26 14 -57 14 -68 0 -15 15 -29 49 -48 27 -15 62 -44 77 -65 16
-21 47 -60 68 -86 l40 -48 14 28 c8 15 32 46 53 68 47 49 72 105 63 143 -19
76 -98 168 -182 211 -51 26 -52 26 -52 -1z m126 -85 c17 -15 43 -54 58 -85 25
-52 27 -60 15 -92 -17 -46 -93 -128 -112 -120 -9 3 -31 29 -50 58 -19 28 -57
67 -85 86 -43 30 -52 40 -52 66 l0 32 43 -10 c52 -13 77 -34 77 -65 0 -13 7
-38 16 -54 13 -25 20 -30 46 -27 69 7 88 92 28 126 -34 20 -70 79 -70 116 0
26 1 26 28 12 15 -8 41 -27 58 -43z"/>
<path d="M1884 1957 c-93 -50 -159 -128 -178 -209 -9 -39 17 -95 69 -148 24
-25 48 -55 52 -67 7 -19 14 -13 73 60 44 55 82 92 117 112 44 25 52 35 53 60
1 17 7 47 15 68 12 35 12 38 -3 31 -52 -22 -90 -33 -112 -34 -14 0 -30 -4 -36
-8 -20 -13 -53 -74 -47 -88 7 -19 -15 -44 -38 -44 -10 0 -23 9 -29 21 -9 16
-8 25 6 40 10 11 23 18 29 15 18 -6 64 76 75 134 17 91 17 91 -46 57z m16 -62
c-10 -43 -44 -101 -58 -98 -16 4 -52 -46 -52 -70 0 -28 39 -67 66 -67 24 0 72
53 66 72 -10 35 22 64 82 74 35 5 36 4 36 -26 0 -23 -6 -33 -24 -40 -14 -5
-40 -24 -60 -43 -19 -19 -38 -32 -41 -29 -3 3 -5 -1 -5 -9 0 -8 -16 -31 -34
-51 l-34 -38 -41 40 c-90 88 -87 150 16 267 19 21 69 53 84 53 4 0 3 -16 -1
-35z"/>
<path d="M746 1718 c8 -29 14 -71 14 -93 l0 -41 85 0 c72 1 84 3 78 16 -4 8
-9 39 -11 67 l-4 53 -79 25 c-44 14 -84 25 -88 25 -4 0 -2 -23 5 -52z m122
-13 c3 -2 8 -22 12 -44 l7 -39 -49 -4 c-45 -3 -48 -2 -49 22 0 14 -2 38 -3 53
-2 28 -1 29 38 22 22 -3 42 -8 44 -10z"/>
<path d="M2235 1765 c-5 -2 -42 -13 -81 -25 l-72 -23 -6 -46 c-3 -25 -8 -55
-11 -66 -6 -19 -1 -20 80 -22 l85 -2 0 42 c0 41 11 95 25 130 7 16 2 19 -20
12z m-31 -92 c-8 -61 -8 -60 -41 -57 -15 1 -35 2 -44 3 -18 1 -21 44 -5 69 10
17 43 31 74 31 22 1 23 -1 16 -46z"/>
<path d="M930 1677 c0 -67 29 -124 98 -192 63 -63 118 -91 158 -83 16 3 -31
78 -100 159 -17 20 -45 54 -62 75 -17 22 -46 47 -63 57 l-31 18 0 -34z m133
-131 c38 -44 47 -62 25 -51 -7 4 -4 -1 6 -9 11 -9 23 -16 28 -16 4 0 8 -4 8
-10 0 -35 -87 29 -128 95 -14 22 -26 53 -28 70 l-2 30 26 -33 c15 -18 44 -52
65 -76z"/>
<path d="M2014 1682 c-54 -39 -232 -267 -219 -280 12 -12 90 15 128 44 78 61
145 182 135 246 -3 18 -5 18 -44 -10z m-3 -59 c-9 -41 -45 -105 -75 -132 -14
-14 -26 -21 -26 -16 0 5 -11 -2 -25 -15 -14 -13 -28 -20 -32 -17 -3 4 -1 7 5
7 7 0 12 7 12 15 0 8 5 15 10 15 6 0 10 7 10 15 0 8 5 15 10 15 6 0 10 4 10
10 0 10 26 44 63 82 9 10 17 22 17 27 0 5 6 12 13 14 6 3 13 6 13 6 1 1 -1
-11 -5 -26z"/>
<path d="M800 1564 c0 -3 22 -27 49 -53 29 -28 51 -60 56 -79 l7 -32 72 0 c40
0 75 3 78 6 3 3 -25 37 -64 76 -50 50 -80 73 -106 79 -43 10 -92 12 -92 3z
m173 -94 l36 -37 -34 -1 c-30 -1 -37 3 -51 31 -9 18 -21 35 -26 38 -6 4 1 7
15 7 15 0 38 -14 60 -38z"/>
<path d="M2118 1560 c-59 -4 -69 -8 -89 -35 -12 -16 -42 -49 -67 -72 -39 -37
-41 -43 -25 -51 10 -5 47 -7 83 -3 64 6 64 6 71 41 5 24 22 48 56 77 26 23 46
43 43 45 -3 2 -35 1 -72 -2z m-26 -39 c-7 -4 -12 -12 -10 -17 1 -5 -6 -24 -15
-41 -14 -27 -23 -33 -50 -33 l-32 1 23 18 c12 11 22 24 22 29 0 13 49 52 64
52 7 0 6 -4 -2 -9z"/>
<path d="M745 1530 c-16 -32 -88 -90 -112 -90 -23 0 -14 -14 37 -58 l50 -43
82 27 c46 15 84 28 85 29 1 0 -2 17 -7 37 -7 24 -28 51 -65 82 l-54 47 -16
-31z m78 -58 c33 -34 34 -57 5 -67 -13 -4 -30 -9 -38 -12 -36 -12 -81 -10 -95
4 -23 22 -18 36 20 61 19 12 35 27 35 32 0 21 47 9 73 -18z"/>
<path d="M2167 1506 c-31 -29 -57 -60 -57 -69 0 -8 -2 -22 -5 -29 -4 -11 11
-19 52 -32 32 -10 70 -23 86 -29 24 -10 31 -8 60 20 17 16 42 37 55 45 l23 15
-33 14 c-40 16 -108 76 -108 95 0 28 -18 21 -73 -30z m108 -53 c28 -25 44 -43
38 -39 -8 4 -13 1 -13 -8 0 -30 -33 -35 -90 -15 -30 10 -56 19 -57 19 -12 0 1
48 19 67 30 32 46 29 103 -24z"/>
<path d="M1055 1383 c56 -52 131 -106 180 -129 33 -15 63 -29 66 -31 3 -2 11
15 18 37 11 38 11 41 -16 65 -15 13 -41 31 -58 39 -34 16 -206 34 -190 19z
m175 -43 c0 -6 6 -10 13 -10 18 0 44 -31 44 -52 0 -15 -4 -14 -36 3 -20 10
-42 19 -50 19 -8 0 -11 3 -7 7 4 4 -8 15 -25 24 l-33 16 47 1 c26 1 47 -3 47
-8z"/>
<path d="M1804 1381 c-35 -4 -63 -16 -89 -36 -21 -17 -43 -33 -48 -36 -7 -5 3
-52 18 -86 4 -9 153 75 190 107 26 22 50 40 56 40 5 0 9 5 9 10 0 11 -53 11
-136 1z m23 -50 c-12 -8 -24 -18 -27 -22 -3 -4 -23 -14 -44 -23 -57 -24 -73
-4 -27 35 28 23 43 28 77 27 41 -2 41 -3 21 -17z"/>
<path d="M910 1350 c0 -17 7 -47 15 -67 l15 -36 53 7 c28 3 81 6 117 6 64 1
65 1 40 18 -13 9 -40 32 -60 50 -38 35 -84 52 -142 52 -36 0 -38 -2 -38 -30z
m133 -24 c37 -16 48 -32 25 -34 -7 0 -37 -4 -65 -8 l-53 -7 0 35 c0 33 2 35
28 33 15 -1 44 -9 65 -19z"/>
<path d="M1978 1373 c-14 -2 -46 -21 -70 -42 -24 -20 -54 -45 -68 -54 -24 -17
-24 -17 31 -17 31 0 84 -3 117 -6 l62 -7 15 36 c8 20 15 50 15 67 0 28 -2 30
-37 29 -21 -1 -50 -4 -65 -6z m61 -33 c4 0 5 -14 3 -31 l-5 -31 -51 7 c-28 3
-56 7 -63 7 -7 1 -10 6 -6 11 9 15 87 47 101 42 8 -3 17 -5 21 -5z"/>
<path d="M805 1347 c-33 -11 -61 -21 -63 -22 -3 -2 78 -118 93 -133 2 -2 21 8
43 23 l40 27 -14 33 c-8 19 -14 48 -14 65 0 35 -3 35 -85 7z m61 -65 c9 -45
-18 -54 -51 -16 -29 34 -28 46 6 55 30 8 37 2 45 -39z"/>
<path d="M2100 1341 c0 -16 -7 -44 -15 -64 l-14 -35 41 -27 c41 -27 42 -27 55
-9 8 10 29 40 48 66 20 26 31 49 25 53 -13 8 -121 45 -132 45 -4 0 -8 -13 -8
-29z m64 -21 c31 -12 32 -23 5 -61 -17 -24 -23 -27 -38 -17 -15 9 -17 17 -8
50 5 21 11 38 13 38 1 0 14 -4 28 -10z"/>
<path d="M1015 1231 l-60 -6 30 -21 c52 -37 88 -51 148 -58 59 -6 107 -25 140
-54 16 -14 17 -11 17 45 0 85 -16 98 -129 99 -47 1 -113 -1 -146 -5z m210 -31
c-4 -7 0 -10 11 -8 14 2 18 -2 16 -17 -5 -28 -6 -28 -47 -11 -21 9 -57 16 -81
16 -39 0 -53 8 -40 21 3 2 37 6 76 7 52 2 70 0 65 -8z"/>
<path d="M1740 1222 c-34 -17 -35 -18 -35 -79 -1 -35 0 -63 2 -63 1 0 14 11
28 24 25 23 54 32 165 50 19 4 58 21 85 39 l50 32 -65 6 c-124 12 -193 10
-230 -9z m160 -28 c0 -5 -21 -12 -47 -15 -26 -3 -59 -10 -73 -16 -19 -8 -28
-7 -38 3 -17 18 -15 24 8 24 11 0 20 4 20 8 0 12 130 8 130 -4z"/>
<path d="M886 1198 l-40 -20 25 -19 c42 -33 117 -50 163 -38 l40 11 -48 23
c-26 13 -58 32 -70 44 -27 25 -22 25 -70 -1z"/>
<path d="M2035 1200 c-10 -11 -41 -31 -68 -44 l-50 -23 37 -13 c41 -13 83 -7
138 21 52 27 54 36 9 59 -49 24 -44 24 -66 0z"/>
<path d="M782 1133 c-24 -20 -61 -62 -83 -94 l-40 -59 97 6 98 7 51 53 c51 52
52 53 27 59 -14 3 -44 19 -67 35 l-41 28 -42 -35z m81 -27 c22 -17 22 -38 -2
-64 -15 -18 -29 -22 -80 -22 l-62 0 28 38 c48 64 78 76 116 48z"/>
<path d="M2121 1135 c-19 -13 -47 -27 -62 -30 l-28 -6 52 -53 52 -53 97 -5
c70 -4 96 -2 91 6 -51 83 -130 167 -156 166 -6 -1 -27 -12 -46 -25z m93 -40
c16 -13 35 -36 42 -50 l13 -25 -58 0 c-56 0 -74 8 -99 42 -11 14 -9 20 9 37
30 28 58 26 93 -4z"/>
<path d="M1306 1107 c-4 -28 -2 -55 8 -78 38 -93 28 -182 -30 -262 -36 -49
-82 -77 -128 -77 -19 0 -27 -8 -36 -35 -13 -40 -92 -131 -120 -140 -27 -9 -25
-27 8 -57 37 -37 73 -48 146 -48 110 0 171 33 211 114 18 36 25 66 25 107 l0
57 -62 -61 c-34 -34 -61 -69 -60 -78 4 -23 -24 -42 -52 -35 -49 12 -39 61 15
71 34 7 67 33 115 93 35 42 44 62 54 122 15 86 5 212 -18 249 -9 14 -29 43
-43 63 l-27 38 -6 -43z m73 -182 c1 -74 -18 -177 -37 -204 -9 -13 -21 -31 -27
-40 -15 -23 -35 -38 -85 -61 -52 -25 -70 -45 -70 -76 0 -27 44 -64 75 -64 26
0 76 56 68 76 -3 8 -1 14 5 12 6 -2 18 6 26 17 15 20 15 20 16 -2 0 -36 -37
-106 -59 -109 -3 0 -19 -7 -36 -15 -18 -8 -63 -14 -112 -14 -70 0 -86 3 -103
21 l-21 20 54 55 c30 30 57 67 61 82 4 15 12 29 19 31 103 29 104 29 165 110
36 48 37 51 41 150 4 103 19 111 20 11z"/>
<path d="M1630 1083 c-43 -64 -44 -69 -48 -158 -2 -50 1 -118 8 -151 11 -53
19 -66 80 -127 51 -51 73 -67 87 -63 28 9 57 -16 49 -42 -14 -44 -86 -36 -86
9 0 10 -14 29 -31 41 -17 13 -44 41 -60 62 l-29 40 0 -67 c0 -148 86 -224 243
-215 83 4 120 20 154 64 l24 32 -46 22 c-48 23 -85 68 -106 128 -9 28 -16 32
-45 32 -71 0 -130 58 -160 156 -19 63 -18 94 6 161 21 59 26 128 12 137 -5 3
-28 -25 -52 -61z m0 -224 c0 -19 36 -98 49 -109 3 -3 11 -14 17 -25 13 -24 81
-63 112 -64 15 -1 29 -12 40 -33 9 -18 41 -57 70 -87 28 -30 52 -56 52 -58 0
-2 -15 -12 -32 -23 -44 -27 -149 -27 -211 -1 -55 24 -112 100 -86 116 5 4 7
12 3 18 -3 7 2 3 10 -8 9 -11 23 -28 31 -38 8 -9 15 -21 15 -25 0 -15 41 -42
64 -42 23 0 76 49 76 70 0 16 -52 71 -64 67 -24 -9 -84 34 -119 85 -30 43 -38
66 -43 122 -5 51 -4 67 4 62 7 -4 12 -16 12 -27z"/>
<path d="M1810 1115 c-25 -8 -58 -27 -72 -42 -25 -26 -26 -31 -17 -73 14 -65
28 -89 78 -126 39 -30 51 -34 106 -34 49 0 66 4 80 20 25 27 53 25 67 -5 8
-19 8 -28 -2 -40 -14 -17 -46 -20 -55 -5 -3 6 -39 10 -79 10 l-73 0 15 -54 15
-54 81 -10 c68 -9 83 -9 92 4 15 18 53 18 60 -1 5 -11 24 -15 80 -15 45 0 74
4 74 10 0 20 -31 72 -76 127 -24 29 -44 63 -44 74 0 11 -7 34 -16 51 l-16 31
-100 -6 c-55 -3 -105 -10 -111 -16 -32 -32 -86 19 -57 54 16 19 34 19 54 0 11
-11 38 -15 113 -15 l98 1 -39 34 c-32 28 -181 97 -204 94 -4 0 -27 -7 -52 -14z
m135 -47 c30 -13 55 -26 55 -30 0 -14 -64 -8 -94 7 -36 19 -77 6 -96 -30 -11
-20 -10 -29 7 -57 22 -38 55 -46 96 -25 29 15 174 14 189 -1 4 -4 8 -19 10
-34 2 -16 27 -59 56 -96 29 -38 52 -72 52 -75 0 -13 -85 -6 -104 8 -23 18 -62
20 -72 4 -4 -7 -28 -9 -68 -5 -33 3 -66 5 -71 5 -6 1 -12 12 -13 25 -2 23 1
24 52 21 30 -1 59 -6 65 -9 18 -11 48 2 65 30 16 23 15 27 0 59 -9 19 -22 35
-29 35 -7 0 -20 3 -28 6 -8 3 -21 -1 -29 -9 -20 -20 -71 -30 -118 -22 -28 5
-51 19 -80 48 -33 35 -40 49 -40 82 0 80 84 107 195 63z"/>
<path d="M1016 1090 c-39 -16 -84 -43 -100 -60 l-31 -30 98 0 c74 0 102 4 113
15 19 19 29 19 48 -1 21 -20 20 -27 -5 -50 -17 -16 -23 -16 -42 -5 -29 19
-202 28 -221 12 -7 -6 -19 -33 -25 -58 -7 -27 -29 -66 -52 -94 -42 -51 -69
-96 -69 -118 0 -18 151 -12 158 7 5 16 42 15 56 -2 9 -11 25 -11 90 -2 84 12
85 13 100 83 l7 31 -63 4 c-41 2 -70 -1 -83 -9 -29 -19 -44 -16 -57 12 -8 19
-8 28 2 40 17 20 37 19 67 -5 35 -27 126 -28 169 -1 47 28 83 82 93 136 11 60
9 64 -35 94 -55 38 -131 38 -218 1z m197 -16 c17 -6 27 -35 27 -80 0 -22 -11
-44 -39 -75 -38 -43 -39 -43 -102 -43 -47 1 -73 6 -98 22 l-35 21 -33 -34
c-35 -37 -39 -51 -20 -76 22 -28 48 -37 78 -27 22 8 63 7 106 -2 1 0 1 -9 0
-19 -1 -16 -12 -20 -68 -26 -46 -5 -73 -3 -86 5 -16 10 -29 10 -69 -3 -53 -17
-104 -20 -104 -6 0 5 5 9 10 9 6 0 10 9 10 21 0 11 5 17 10 14 6 -3 10 -2 10
3 0 5 13 26 29 46 16 20 32 53 36 73 4 21 11 41 16 44 15 9 183 -1 194 -12 16
-16 48 -10 72 13 59 56 -7 138 -80 99 -17 -9 -37 -11 -64 -6 l-38 8 35 12 c19
6 46 17 60 23 24 11 110 9 143 -4z"/>
<path d="M1290 1000 c-1 -44 -36 -106 -82 -143 -35 -29 -47 -47 -57 -87 -7
-28 -10 -54 -7 -57 11 -11 82 16 103 39 44 48 63 100 62 168 0 66 -17 134 -19
80z m-21 -152 c-5 -18 -9 -34 -9 -36 0 -6 -65 -62 -72 -62 -5 0 -8 10 -8 22 0
13 19 39 47 65 26 23 48 43 50 43 1 0 -3 -15 -8 -32z"/>
<path d="M420 991 c-21 -41 -12 -91 24 -127 57 -57 124 -40 165 41 13 25 21
48 18 51 -2 3 -29 9 -59 14 -30 4 -72 16 -93 24 -46 20 -42 20 -55 -3z m148
-51 c15 0 22 -4 18 -12 -3 -7 -9 -21 -12 -30 -3 -9 -21 -22 -39 -28 -47 -15
-81 2 -90 46 -9 49 -1 55 53 39 26 -8 58 -15 70 -15z"/>
<path d="M1688 1005 c-16 -28 -19 -98 -4 -147 26 -90 79 -147 139 -148 31 0
31 0 12 63 -10 33 -29 62 -64 96 -35 34 -53 61 -63 97 -7 27 -16 45 -20 39z
m110 -224 c15 -41 15 -41 1 -41 -5 0 -8 4 -5 9 3 5 -5 12 -19 15 -14 4 -25 13
-25 21 0 8 -4 15 -8 15 -7 0 -32 64 -32 82 0 17 79 -73 88 -101z"/>
<path d="M2500 989 c-25 -10 -59 -18 -77 -18 -53 -1 -63 -9 -52 -39 18 -50 31
-69 59 -85 55 -33 114 -11 140 52 13 32 3 103 -15 107 -6 1 -30 -6 -55 -17z
m40 -62 c0 -78 -87 -91 -128 -19 -14 25 -15 23 48 41 67 18 80 15 80 -22z"/>
<path d="M993 678 c-29 -5 -53 -13 -53 -18 0 -17 -30 -18 -52 -2 -18 14 -39
17 -96 14 l-74 -4 7 -26 c10 -41 58 -96 96 -109 43 -15 119 -16 156 -2 38 14
90 65 114 111 10 21 19 40 19 43 0 7 -56 4 -117 -7z m50 -58 c-29 -50 -60 -64
-140 -65 -79 0 -125 22 -131 64 -3 19 1 21 52 21 31 0 56 -4 56 -10 0 -15 44
-12 76 5 16 8 46 15 67 15 l38 0 -18 -30z"/>
<path d="M1880 686 c0 -4 11 -29 25 -56 37 -72 96 -105 192 -105 57 0 77 4
100 21 29 22 56 62 68 102 6 22 5 22 -73 22 -59 0 -83 -4 -92 -15 -15 -19 -25
-19 -42 -1 -8 7 -36 16 -63 20 -28 4 -65 10 -82 13 -18 3 -33 2 -33 -1z m165
-57 c12 -12 62 -12 70 1 7 11 88 14 98 4 11 -11 -22 -62 -45 -70 -39 -12 -142
-7 -170 8 -32 17 -70 62 -61 71 8 9 96 -3 108 -14z"/>
</g>
</svg>
